{
  "asset": { "version": "2.0", "generator": "rusty starter material library (#173)" },
  "scene": 0,
  "scenes": [ { "nodes": [ 0, 1, 2, 3 ] } ],
  "nodes": [
    { "name": "Matte",    "mesh": 0 },
    { "name": "Metal",    "mesh": 1 },
    { "name": "Plastic",  "mesh": 2 },
    { "name": "Emissive", "mesh": 3 }
  ],
  "meshes": [
    { "name": "Matte",    "primitives": [ { "attributes": { "POSITION": 0 }, "material": 0 } ] },
    { "name": "Metal",    "primitives": [ { "attributes": { "POSITION": 0 }, "material": 1 } ] },
    { "name": "Plastic",  "primitives": [ { "attributes": { "POSITION": 0 }, "material": 2 } ] },
    { "name": "Emissive", "primitives": [ { "attributes": { "POSITION": 0 }, "material": 3 } ] }
  ],
  "materials": [
    {
      "name": "Matte",
      "pbrMetallicRoughness": {
        "baseColorFactor": [0.8, 0.8, 0.8, 1.0],
        "metallicFactor": 0.0,
        "roughnessFactor": 0.9
      }
    },
    {
      "name": "Metal",
      "pbrMetallicRoughness": {
        "baseColorFactor": [0.95, 0.95, 0.96, 1.0],
        "metallicFactor": 1.0,
        "roughnessFactor": 0.25
      }
    },
    {
      "name": "Plastic",
      "pbrMetallicRoughness": {
        "baseColorFactor": [0.2, 0.45, 0.85, 1.0],
        "metallicFactor": 0.0,
        "roughnessFactor": 0.4
      }
    },
    {
      "name": "Emissive",
      "pbrMetallicRoughness": {
        "baseColorFactor": [0.05, 0.05, 0.05, 1.0],
        "metallicFactor": 0.0,
        "roughnessFactor": 0.6
      },
      "emissiveFactor": [0.9, 0.3, 0.1]
    }
  ],
  "accessors": [
    {
      "bufferView": 0,
      "componentType": 5126,
      "count": 3,
      "type": "VEC3",
      "min": [0.0, 0.0, 0.0],
      "max": [1.0, 1.0, 0.0]
    }
  ],
  "bufferViews": [
    { "buffer": 0, "byteOffset": 0, "byteLength": 36 }
  ],
  "buffers": [
    {
      "byteLength": 36,
      "uri": "data:application/octet-stream;base64,"
    }
  ]
}
